<?xml version="1.0" standalone="no"?>
<!DOCTYPE svg PUBLIC "-//W3C//DTD SVG 20010904//EN"
 "http://www.w3.org/TR/2001/REC-SVG-20010904/DTD/svg10.dtd">
<svg version="1.0" xmlns="http://www.w3.org/2000/svg"
 width="720.000000pt" height="720.000000pt" viewBox="0 0 720.000000 720.000000"
 preserveAspectRatio="xMidYMid meet">
<metadata>
Created by potrace 1.14, written by Peter Selinger 2001-2017
</metadata>
<g transform="translate(0.000000,720.000000) scale(0.100000,-0.100000)"
fill="#000000" stroke="none">
<path d="M3105 7004 c-91 -7 -290 -36 -300 -44 -5 -4 -30 -11 -55 -15 -25 -4
-53 -11 -62 -16 -9 -5 -45 -13 -80 -18 -35 -6 -72 -12 -83 -14 -68 -15 -328
-36 -534 -43 -80 -2 -150 -9 -156 -14 -6 -5 -44 -14 -84 -20 -40 -6 -96 -17
-124 -26 -144 -44 -186 -59 -226 -81 -24 -12 -48 -23 -54 -23 -15 0 -116 -84
-117 -97 0 -6 -3 -13 -7 -15 -5 -1 -28 -32 -53 -68 -24 -36 -52 -73 -61 -83
-9 -10 -27 -38 -39 -62 -12 -24 -32 -54 -43 -65 -44 -48 -323 -476 -369 -565
-89 -176 -187 -376 -196 -400 -7 -16 -19 -70 -27 -119 -22 -128 -22 -857 0
-1088 37 -391 104 -568 286 -753 48 -49 109 -117 136 -149 26 -33 71 -83 98
-112 l50 -52 -23 -21 c-13 -12 -30 -21 -38 -21 -14 0 -138 -57 -159 -72 -5 -5
-44 -33 -85 -64 -88 -66 -144 -125 -128 -135 6 -4 24 6 40 22 39 39 113 99
122 99 4 0 26 13 49 29 69 47 158 91 189 93 34 3 72 40 73 70 0 15 21 39 62
72 35 28 73 66 85 83 13 18 28 33 34 33 7 0 14 10 18 23 3 13 24 43 46 67 23
25 52 62 65 82 34 52 121 138 140 138 8 0 15 4 15 9 0 15 24 19 50 9 l25 -10
-25 -12 c-42 -19 -70 -40 -70 -52 0 -19 29 -25 53 -12 12 6 49 13 81 15 32 2
65 8 73 14 7 7 38 13 68 14 31 1 61 7 67 13 7 7 20 12 29 12 10 0 25 7 33 16
16 15 36 12 36 -7 0 -5 -20 -28 -44 -52 -45 -43 -67 -89 -47 -101 17 -11 51
13 51 34 0 11 6 20 13 20 6 0 28 23 47 51 19 27 44 61 55 74 12 13 32 47 45
77 13 29 34 76 47 105 13 28 23 60 23 71 0 10 9 37 20 59 23 47 60 178 60 210
0 13 5 23 10 23 6 0 10 7 10 16 0 9 6 28 14 42 8 15 29 56 46 92 18 35 40 75
51 88 20 26 26 62 9 62 -5 0 -22 -19 -36 -42 -15 -23 -35 -51 -45 -62 -11 -11
-19 -25 -19 -32 0 -6 -6 -17 -14 -23 -8 -7 -12 -21 -9 -33 5 -18 4 -19 -16 -9
-12 7 -21 8 -21 2 0 -5 6 -11 13 -14 9 -3 9 -9 -1 -26 -7 -12 -10 -26 -7 -31
4 -6 1 -10 -4 -10 -6 0 -11 -9 -11 -19 0 -11 -4 -23 -10 -26 -5 -3 -10 -19
-10 -34 0 -15 -9 -46 -20 -69 -11 -22 -20 -49 -20 -59 -1 -39 -51 -179 -69
-193 -3 -3 -13 -18 -21 -35 -17 -35 -38 -58 -62 -68 -10 -3 -16 -12 -14 -19 1
-7 1 -10 -1 -7 -5 9 -73 -12 -73 -23 0 -4 -7 -8 -16 -8 -8 0 -36 -8 -62 -19
-78 -30 -146 -51 -169 -51 -27 0 -41 20 -22 30 8 5 34 27 59 50 25 22 56 48
70 56 14 9 39 34 57 57 17 23 48 60 67 82 38 42 82 122 73 131 -3 3 -14 1 -24
-5 -10 -6 -14 -11 -8 -11 5 0 -1 -7 -13 -16 -12 -8 -29 -30 -38 -47 -35 -70
-254 -265 -254 -227 0 12 54 91 127 187 35 44 63 88 63 96 0 9 4 17 8 19 4 2
17 21 28 43 12 22 33 46 47 53 35 17 34 29 -1 37 -46 10 -143 52 -160 69 -15
15 -13 16 22 16 68 0 190 61 224 112 13 21 29 38 33 38 16 0 9 60 -8 79 -58
61 -77 86 -117 154 -25 42 -48 93 -51 114 l-7 38 30 -30 c40 -41 71 -65 81
-65 4 0 16 -9 25 -19 10 -11 32 -25 49 -31 18 -7 42 -17 55 -23 12 -6 62 -11
110 -11 69 -1 93 3 115 18 15 10 27 24 27 31 0 15 91 105 102 102 4 -1 13 5
20 14 7 9 45 40 83 69 39 30 72 56 75 60 7 9 43 24 53 22 4 -1 7 5 7 13 0 8 5
15 10 15 6 0 24 14 40 30 16 17 33 30 37 30 16 0 201 174 311 293 9 10 32 25
50 34 17 8 32 20 32 25 0 5 4 7 9 4 5 -3 16 5 25 19 9 13 32 31 51 41 19 9 35
20 35 25 0 5 17 19 38 33 20 13 53 38 73 57 41 39 104 94 146 126 15 12 46 38
68 57 22 20 43 36 46 36 3 0 44 31 90 70 46 38 89 70 96 70 6 0 13 3 15 8 5
12 61 47 103 64 65 26 212 48 323 48 56 0 102 -4 102 -9 0 -4 27 -11 60 -15
33 -4 60 -10 60 -15 0 -4 22 -13 50 -19 27 -6 68 -23 90 -37 22 -14 59 -32 82
-41 24 -9 49 -24 56 -32 6 -9 12 -12 12 -7 0 15 42 -30 82 -88 52 -76 71 -174
64 -324 -6 -139 -16 -213 -27 -213 -5 0 -9 -7 -9 -15 0 -8 -4 -15 -9 -15 -5 0
-17 -3 -27 -7 -14 -5 -15 -3 -7 12 13 22 5 64 -8 43 -6 -9 -9 -2 -9 19 0 17 5
35 12 39 6 4 8 3 5 -2 -3 -6 -2 -16 4 -24 6 -10 8 3 8 40 -1 46 -3 50 -9 25
l-8 -30 -2 38 c-1 20 -4 42 -5 47 -1 6 -4 22 -5 38 -2 15 -6 -45 -10 -134 -6
-131 -11 -169 -27 -205 -29 -63 -33 -78 -23 -84 22 -13 130 135 130 179 0 11
3 16 7 13 8 -9 33 47 33 73 0 10 4 20 10 22 6 2 10 69 11 169 0 169 -14 258
-46 284 -7 6 -15 20 -19 32 -4 12 -18 28 -31 37 -14 9 -25 26 -25 37 0 19 4
20 58 13 31 -3 62 -10 68 -15 6 -5 37 -13 70 -18 71 -11 154 -40 154 -53 0 -5
4 -7 9 -4 4 3 24 -3 44 -13 21 -10 49 -22 64 -26 15 -3 30 -10 33 -13 8 -11
42 -30 108 -62 34 -16 62 -34 62 -39 0 -5 10 -11 23 -15 12 -3 32 -14 44 -26
12 -11 24 -20 26 -20 2 0 35 -30 74 -67 68 -66 163 -185 163 -205 0 -6 15 -31
33 -57 17 -25 43 -68 56 -94 13 -26 27 -46 30 -44 3 1 29 13 56 25 93 42 155
77 188 105 17 16 48 39 67 52 61 41 179 152 230 215 19 24 49 60 65 79 42 50
41 48 92 126 25 39 61 104 81 145 34 73 35 78 34 196 -1 96 -5 135 -22 185
-26 78 -82 180 -118 217 -97 98 -269 179 -507 237 -51 13 -130 18 -290 22
-286 6 -388 -7 -675 -84 -55 -15 -111 -33 -225 -73 -81 -29 -294 -125 -380
-173 -88 -49 -164 -83 -203 -92 -29 -6 -32 -3 -135 152 -78 118 -127 178 -189
238 -103 98 -199 185 -204 185 -2 0 -48 33 -102 73 -114 87 -198 137 -267 161
-51 17 -210 28 -310 20z m247 -59 c86 -20 192 -78 295 -161 23 -19 45 -34 49
-34 4 0 14 -7 23 -15 9 -8 30 -28 48 -45 17 -16 34 -30 36 -30 9 0 81 -66 181
-165 115 -114 147 -151 139 -159 -4 -3 -1 -6 5 -6 7 0 12 -5 12 -11 0 -6 21
-43 47 -82 73 -109 78 -96 -60 -167 -103 -52 -174 -91 -265 -145 -10 -5 -32
-20 -50 -33 -17 -13 -36 -20 -42 -17 -12 7 -70 129 -70 146 0 6 -13 34 -30 61
-16 26 -30 51 -30 54 0 3 -30 45 -67 93 -74 94 -202 227 -272 282 -24 19 -53
43 -65 54 -21 20 -119 91 -210 153 -66 44 -188 110 -233 126 -20 7 -40 22 -44
34 -7 19 -4 21 39 27 26 4 58 10 72 15 14 5 90 14 170 21 80 6 147 13 149 15
10 9 115 3 173 -11z m-1565 -2277 c-3 -7 -5 -2 -5 12 0 14 2 19 5 13 2 -7 2
-19 0 -25z"/>
<path d="M4745 5517 c-19 -24 -35 -57 -35 -71 0 -8 -6 -19 -12 -23 -7 -4 -17
-15 -23 -24 -19 -31 -75 -102 -75 -96 0 4 -22 -15 -49 -41 -73 -71 -90 -85
-161 -130 -36 -22 -76 -49 -90 -60 -14 -10 -35 -22 -47 -26 -13 -4 -23 -12
-23 -17 0 -6 -4 -7 -10 -4 -5 3 -10 1 -10 -6 0 -7 -3 -9 -6 -6 -8 8 -46 -12
-40 -21 2 -4 -11 -7 -30 -8 -18 0 -42 -8 -52 -17 -10 -9 -26 -17 -34 -17 -9 0
-36 -9 -60 -20 -46 -20 -157 -52 -193 -54 -11 -1 -31 -8 -43 -15 -25 -13 -72
-8 -72 9 0 9 18 16 61 24 15 2 35 9 45 15 34 19 136 61 149 61 8 0 15 4 17 8
2 5 30 23 63 42 33 18 62 37 65 40 3 4 21 15 41 24 20 10 44 25 53 34 9 9 41
43 71 74 51 54 66 78 47 78 -4 0 -26 -18 -47 -41 -36 -36 -156 -125 -210 -155
-47 -25 -65 -34 -152 -77 -51 -24 -95 -42 -98 -39 -9 10 -5 62 5 62 13 0 10
89 -2 96 -4 3 -8 47 -9 97 0 55 -3 84 -8 72 -4 -11 -7 -87 -7 -170 2 -138 0
-152 -19 -172 -11 -13 -31 -23 -45 -23 -14 0 -36 -6 -50 -13 -14 -8 -40 -17
-58 -20 -33 -7 -102 -47 -102 -59 0 -13 49 -9 87 7 19 8 45 15 57 15 21 -1 21
-1 1 -16 -19 -15 -15 -16 45 -12 l65 3 3 -43 c2 -27 -3 -53 -12 -67 -9 -14
-16 -34 -16 -45 0 -36 -75 -152 -134 -208 -31 -29 -56 -57 -56 -63 0 -5 -3 -9
-8 -9 -4 0 -20 -12 -37 -27 -16 -16 -52 -45 -79 -65 -28 -21 -60 -45 -71 -54
-50 -39 -167 -109 -235 -142 -41 -19 -77 -38 -80 -41 -3 -4 -27 -12 -55 -19
-27 -7 -52 -17 -55 -21 -7 -11 -67 -30 -74 -24 -3 4 -6 -2 -6 -13 0 -14 -2
-16 -9 -5 -6 10 -13 11 -29 2 -11 -6 -44 -11 -73 -11 -34 0 -59 -6 -70 -16
-17 -15 -20 -14 -40 20 -18 31 -25 35 -47 30 -77 -17 -103 -42 -64 -63 11 -6
52 -13 93 -17 41 -3 77 -8 82 -11 12 -7 8 -41 -6 -50 -8 -4 -25 -25 -39 -45
-13 -21 -28 -35 -31 -31 -4 3 -7 0 -7 -8 0 -8 -14 -22 -30 -31 -46 -26 -36
-53 11 -28 13 8 19 7 19 0 0 -7 6 -5 15 4 8 8 15 20 15 26 0 6 5 8 10 5 6 -3
14 5 20 19 5 14 16 26 24 26 10 0 13 8 10 30 -4 23 -1 30 10 30 9 0 16 4 16
10 0 5 14 23 31 40 33 31 89 42 89 18 0 -16 -65 -88 -79 -88 -6 0 -11 -4 -11
-10 0 -19 39 -10 45 10 4 11 11 18 16 15 5 -4 9 -1 9 4 0 6 7 11 15 11 8 0 33
18 57 41 24 22 68 52 98 66 30 13 68 31 83 39 16 8 35 14 42 14 16 0 88 41 93
52 2 4 8 8 13 8 10 0 169 102 192 123 7 7 33 28 57 47 77 59 210 187 210 202
0 4 5 8 10 8 15 0 12 -33 -5 -56 -8 -10 -15 -27 -15 -38 -1 -65 -123 -347
-177 -411 -5 -5 -12 -18 -16 -27 -3 -10 -11 -18 -16 -18 -5 0 -12 -11 -15 -25
-4 -14 -10 -25 -14 -25 -5 0 -19 -22 -32 -49 -20 -44 -21 -51 -8 -64 13 -13
16 -13 26 4 7 10 12 24 12 30 0 6 6 16 13 23 55 57 140 179 188 271 15 28 36
66 48 85 32 54 39 69 61 148 12 40 24 71 28 68 4 -2 8 23 9 57 2 33 8 64 14
67 6 5 13 67 16 166 3 87 10 164 15 170 5 7 36 12 70 13 39 0 64 6 72 15 6 8
25 16 41 19 58 9 192 68 207 91 4 6 8 7 8 3 0 -9 83 34 88 46 2 4 8 7 13 7 12
0 143 86 158 104 8 9 19 16 25 16 15 1 86 68 86 82 0 6 3 9 6 5 10 -10 36 22
28 34 -4 8 -3 9 5 5 19 -12 102 96 115 148 6 23 9 27 17 15 6 -9 9 1 9 34 0
51 0 52 -15 34z"/>
<path d="M3792 5235 c0 -16 2 -22 5 -12 2 9 2 23 0 30 -3 6 -5 -1 -5 -18z"/>
<path d="M6172 4964 c-57 -47 -54 -46 -199 -48 -48 -1 -63 -19 -20 -24 15 -2
32 -12 37 -23 7 -12 21 -19 41 -19 37 0 123 44 148 76 14 18 24 22 39 17 20
-8 20 -9 -8 -91 -29 -85 -84 -201 -110 -230 -8 -9 -40 -48 -70 -85 -59 -74
-139 -141 -188 -158 -31 -11 -42 -32 -22 -44 6 -3 22 2 38 13 15 11 37 22 48
26 12 4 29 15 39 26 10 11 22 20 28 20 11 0 53 43 128 130 47 54 92 133 140
245 19 43 16 215 -3 214 -7 0 -37 -20 -66 -45z"/>
<path d="M4929 4812 c-12 -2 -19 -26 -28 -100 -13 -96 -42 -191 -82 -262 -4
-8 -20 -37 -35 -65 -25 -46 -83 -127 -144 -199 -111 -131 -302 -275 -409 -307
-23 -7 -41 -16 -41 -20 0 -5 -6 -6 -14 -3 -16 6 -14 8 66 97 21 23 40 50 44
60 3 9 9 17 13 17 11 0 85 148 117 235 32 86 39 119 27 139 -7 12 -14 6 -33
-32 -14 -26 -36 -60 -49 -77 -36 -47 -146 -158 -171 -175 -13 -8 -32 -23 -42
-32 -10 -10 -22 -18 -28 -18 -5 0 -10 -4 -10 -10 0 -5 -6 -10 -13 -10 -7 0
-22 -8 -33 -19 -44 -40 -195 -119 -304 -157 -41 -14 -88 -32 -105 -39 -16 -7
-70 -23 -120 -35 -125 -30 -119 -27 -102 -44 16 -16 137 -14 172 3 103 50 256
51 313 3 23 -20 32 -36 32 -58 0 -40 -16 -54 -61 -54 -33 0 -37 -3 -43 -31 -9
-48 -7 -114 5 -126 5 -5 12 -34 15 -64 2 -30 11 -72 19 -94 9 -22 18 -48 22
-57 3 -10 9 -18 14 -18 5 0 9 -6 9 -14 0 -19 52 -38 83 -31 28 7 87 91 87 123
0 10 14 40 30 66 17 26 37 74 44 105 16 69 32 101 50 101 18 0 97 -65 115 -95
26 -42 81 -55 81 -19 0 28 -108 181 -188 266 l-35 37 27 11 c15 5 32 10 37 10
5 0 9 5 9 10 0 6 5 10 11 10 5 0 35 12 66 26 44 21 57 24 63 13 5 -7 6 -17 4
-21 -3 -4 -2 -8 3 -8 13 0 33 -51 33 -84 0 -36 34 -116 49 -116 21 0 21 42 1
107 -11 37 -28 75 -37 85 -8 10 -16 34 -17 55 -1 31 4 40 34 60 19 13 68 54
108 90 40 37 76 70 81 73 5 3 11 15 15 28 4 12 12 20 17 17 5 -4 9 -1 9 4 0 6
6 19 14 28 43 52 86 114 86 123 0 6 4 10 8 10 4 0 21 30 37 66 27 60 30 63 39
42 5 -13 8 -27 7 -32 -1 -5 -6 -68 -11 -140 -9 -115 -19 -196 -61 -460 -5 -33
-13 -62 -18 -65 -4 -4 -11 -28 -14 -55 -4 -27 -11 -54 -15 -60 -5 -6 -14 -31
-21 -56 -7 -25 -16 -49 -21 -55 -4 -5 -10 -22 -14 -37 -5 -24 -3 -28 14 -28
11 0 20 6 20 14 0 8 7 21 15 30 17 16 53 94 66 141 4 17 18 64 30 105 21 76
29 117 49 270 6 47 18 133 26 192 11 74 16 178 16 330 0 235 -6 286 -33 280z
m-22 -364 c-3 -7 -5 -2 -5 12 0 14 2 19 5 13 2 -7 2 -19 0 -25z m-647 -367 c0
-4 -9 -20 -20 -33 -10 -14 -17 -27 -15 -30 2 -2 -24 -32 -59 -66 -69 -67 -92
-74 -138 -44 l-27 18 46 24 c25 14 60 37 77 53 17 15 35 27 41 27 5 0 26 14
45 30 36 31 50 37 50 21z m-170 -436 c10 -12 9 -28 -4 -80 -9 -35 -16 -76 -16
-91 0 -32 -20 -104 -33 -121 -5 -7 -22 -13 -37 -13 -31 0 -51 33 -52 86 -1 29
51 170 78 212 17 25 46 29 64 7z"/>
<path d="M3064 4376 c-4 -11 -15 -27 -23 -36 -67 -73 -101 -113 -101 -121 0
-5 -7 -9 -15 -9 -8 0 -15 -7 -15 -15 0 -8 -3 -14 -7 -13 -5 1 -35 -15 -68 -36
-33 -21 -71 -46 -85 -54 -41 -26 -88 -49 -115 -56 -14 -4 -25 -11 -25 -16 0
-18 21 -21 52 -6 17 9 39 16 49 16 10 0 39 16 65 36 26 20 66 45 88 55 81 36
229 219 213 262 -3 7 -8 5 -13 -7z"/>
<path d="M2030 4290 c0 -22 112 -76 132 -64 15 10 8 24 -12 24 -10 0 -23 7
-28 16 -9 16 -92 38 -92 24z"/>
<path d="M5930 4273 c8 -3 19 -11 23 -17 6 -7 7 -6 4 4 -2 8 -12 16 -23 17
-13 2 -15 1 -4 -4z"/>
<path d="M5980 4237 c0 -21 36 -51 45 -37 4 7 -2 14 -14 17 -11 3 -19 9 -16
13 3 5 1 11 -5 15 -5 3 -10 0 -10 -8z"/>
<path d="M6030 4172 c0 -4 8 -15 18 -23 9 -9 22 -25 28 -35 16 -27 27 -12 15
20 -6 14 -18 26 -26 26 -9 0 -13 5 -10 10 3 6 -1 10 -9 10 -9 0 -16 -3 -16 -8z"/>
<path d="M6105 4078 c-4 -10 -4 -26 0 -35 8 -17 8 -17 12 0 3 9 3 25 0 35 -4
16 -4 16 -12 0z"/>
<path d="M5910 4028 c0 -14 59 -58 77 -58 6 0 13 -5 15 -10 2 -6 21 -13 43
-17 22 -3 46 -12 53 -20 8 -7 17 -11 22 -8 4 3 13 -1 19 -9 10 -12 1 -18 -51
-34 -79 -26 -249 -36 -241 -16 4 10 -4 14 -26 14 -31 0 -31 0 -31 -55 0 -30 5
-55 10 -55 6 0 10 -31 10 -72 0 -43 6 -84 14 -100 8 -14 17 -45 21 -67 4 -23
11 -41 16 -41 5 0 9 -9 9 -21 0 -11 6 -33 14 -47 8 -15 23 -46 34 -69 10 -23
22 -40 26 -36 3 3 6 0 6 -8 0 -12 -14 -14 -72 -11 -40 2 -77 8 -82 13 -6 5
-23 9 -39 9 -16 0 -48 12 -72 26 -92 53 -117 12 -80 -128 25 -91 43 -145 56
-168 5 -8 12 -22 15 -30 13 -35 40 -86 49 -92 5 -4 0 -8 -13 -8 -13 0 -21 4
-18 9 3 5 -5 12 -19 15 -14 4 -25 10 -25 15 0 4 -12 21 -27 37 -15 16 -28 34
-28 39 -1 6 -6 9 -12 8 -6 -1 -14 13 -17 31 -7 35 -32 51 -57 36 -10 -7 -9
-18 6 -57 10 -26 21 -50 24 -53 3 -3 17 -22 31 -42 14 -21 28 -38 31 -38 3 0
14 -8 25 -18 32 -30 104 -54 141 -47 41 7 44 34 8 87 -14 20 -25 40 -25 43 0
4 -9 20 -21 36 -11 16 -18 29 -16 29 5 0 -28 98 -47 141 -4 9 -8 36 -9 60 -2
41 -1 44 23 41 14 -1 39 -9 55 -16 54 -25 315 -48 315 -27 0 6 -18 31 -40 55
-22 24 -40 46 -40 49 0 3 -16 29 -35 58 -19 30 -35 59 -35 65 0 6 -7 17 -15
24 -8 7 -13 16 -10 20 4 7 -4 40 -22 90 -3 8 -7 26 -9 40 -10 87 -17 117 -29
136 -12 19 -12 24 4 39 16 14 27 15 72 6 76 -13 181 -5 227 18 53 27 102 75
102 100 0 17 -6 21 -35 21 -33 0 -35 2 -35 35 0 19 -4 35 -10 35 -5 0 -7 -13
-3 -30 l6 -30 -53 0 c-37 0 -59 6 -77 20 -14 11 -31 20 -39 20 -7 0 -14 4 -16
9 -6 15 -48 24 -48 9z"/>
<path d="M2483 3688 c-27 -13 -30 -28 -5 -23 9 2 23 4 30 4 6 1 12 8 12 16 0
17 -6 18 -37 3z"/>
<path d="M2596 3674 c-3 -9 -6 -29 -6 -45 0 -17 -4 -28 -9 -25 -13 8 -21 -19
-21 -68 0 -23 -5 -47 -10 -52 -6 -6 -13 -34 -17 -63 -3 -30 -12 -55 -19 -58
-21 -8 -17 -38 10 -78 32 -47 39 -33 37 73 -1 50 2 88 8 91 6 4 13 36 17 71 3
36 10 67 14 70 5 3 11 19 15 35 4 17 9 38 12 48 6 22 -22 23 -31 1z"/>
<path d="M2400 3645 c-19 -14 -40 -25 -47 -25 -7 0 -13 -10 -13 -22 0 -19 2
-20 10 -8 6 10 10 11 10 3 0 -20 20 -11 56 26 53 53 43 70 -16 26z"/>
<path d="M2293 3593 c-22 -8 -14 -23 12 -23 14 0 25 6 25 13 0 14 -14 17 -37
10z"/>
<path d="M2250 3550 c0 -5 5 -10 10 -10 6 0 10 5 10 10 0 6 -4 10 -10 10 -5 0
-10 -4 -10 -10z"/>
<path d="M2178 3527 c-18 -7 -28 -18 -28 -31 1 -18 2 -19 13 -5 7 8 20 18 30
22 9 3 17 11 17 17 0 5 -1 10 -2 9 -2 -1 -15 -6 -30 -12z"/>
<path d="M2090 3490 c-12 -8 -9 -10 13 -10 16 0 26 4 22 10 -8 12 -16 12 -35
0z"/>
<path d="M2333 3458 c-12 -24 -27 -65 -32 -93 -29 -139 -36 -165 -42 -165 -4
0 -10 -19 -14 -42 -3 -24 -13 -70 -22 -104 l-15 -61 35 -75 c19 -41 39 -78 46
-82 6 -4 11 -17 11 -29 0 -22 51 -63 63 -51 7 8 -4 44 -14 44 -5 0 -9 9 -9 19
0 11 -5 23 -10 26 -6 4 -19 24 -30 45 -15 30 -20 59 -20 125 0 78 6 116 45
260 23 89 37 170 33 198 -3 27 -4 27 -25 -15z"/>
<path d="M2442 3460 c0 -14 2 -19 5 -12 2 6 2 18 0 25 -3 6 -5 1 -5 -13z"/>
<path d="M2018 3453 c6 -2 18 -2 25 0 6 3 1 5 -13 5 -14 0 -19 -2 -12 -5z"/>
<path d="M2470 3393 c0 -10 5 -25 10 -33 8 -12 10 -9 10 12 0 15 -4 30 -10 33
-5 3 -10 -2 -10 -12z"/>
<path d="M1342 3330 c0 -19 2 -27 5 -17 2 9 2 25 0 35 -3 9 -5 1 -5 -18z"/>
<path d="M5110 3273 c-73 -9 -143 -36 -200 -76 -20 -14 -23 -20 -14 -35 9 -13
23 -16 62 -14 42 3 52 0 65 -19 l16 -22 27 22 c34 27 44 27 44 -1 0 -33 -31
-108 -45 -108 -6 0 -17 -10 -23 -22 -8 -17 -11 -18 -11 -7 -1 19 -28 45 -38
36 -3 -4 -5 -26 -5 -51 1 -25 -3 -48 -8 -51 -6 -4 -10 -24 -10 -46 0 -29 4
-39 16 -39 16 0 44 23 44 36 0 4 19 31 41 61 30 38 43 65 47 98 2 25 9 48 13
51 5 3 9 15 9 28 0 12 5 27 12 34 14 14 68 16 68 3 0 -5 11 -8 25 -8 22 0 25
4 25 33 0 20 -5 34 -12 34 -6 0 -21 9 -32 19 -28 26 -85 47 -116 44z"/>
<path d="M5292 3245 c0 -16 2 -22 5 -12 2 9 2 23 0 30 -3 6 -5 -1 -5 -18z"/>
<path d="M1336 3235 c4 -8 8 -15 10 -15 2 0 4 7 4 15 0 8 -4 15 -10 15 -5 0
-7 -7 -4 -15z"/>
<path d="M1932 3168 c1 -21 6 -38 10 -38 4 0 8 -5 8 -12 0 -16 80 -138 91
-138 5 0 9 -6 9 -13 0 -24 120 -138 179 -169 37 -20 51 -22 51 -8 0 6 -9 10
-20 10 -11 0 -20 4 -20 9 0 6 -34 43 -76 83 -42 40 -94 101 -117 136 -23 34
-44 62 -48 62 -4 0 -10 12 -14 28 -3 15 -17 41 -31 57 l-24 30 2 -37z"/>
<path d="M1681 3148 c1 -30 17 -71 18 -46 1 9 13 21 29 26 19 7 21 11 8 11
-12 1 -16 6 -12 16 4 11 -1 15 -19 15 -19 0 -25 -5 -24 -22z"/>
<path d="M5214 3089 c-3 -6 -3 -13 0 -16 3 -4 6 0 6 8 0 12 2 12 9 0 5 -8 11
-9 15 -3 3 5 -1 12 -9 16 -8 3 -17 1 -21 -5z"/>
<path d="M1371 3074 c0 -11 3 -14 6 -6 3 7 2 16 -1 19 -3 4 -6 -2 -5 -13z"/>
<path d="M5194 3035 c-3 -8 -4 -20 -2 -27 3 -7 7 -1 10 15 6 29 1 36 -8 12z"/>
<path d="M5157 2953 c-4 -5 -3 -23 2 -39 l8 -29 5 27 c5 28 -5 57 -15 41z"/>
<path d="M4753 2845 c0 -27 2 -38 4 -22 2 15 2 37 0 50 -2 12 -4 0 -4 -28z"/>
<path d="M1450 2857 c0 -2 10 -23 23 -48 48 -93 67 -111 67 -61 0 20 -3 23
-10 12 -5 -8 -11 -12 -12 -10 -23 30 -38 64 -38 85 0 16 -6 25 -15 25 -8 0
-15 -1 -15 -3z"/>
<path d="M5132 2815 c0 -16 2 -22 5 -12 2 9 2 23 0 30 -3 6 -5 -1 -5 -18z"/>
<path d="M820 2785 c-14 -8 -33 -14 -42 -15 -9 0 -29 -6 -45 -14 -15 -8 -49
-24 -75 -36 -26 -13 -46 -28 -45 -34 1 -6 -8 -12 -21 -14 -12 -2 -20 -7 -17
-12 6 -10 45 -1 45 11 0 5 7 9 15 9 12 0 55 18 115 50 9 4 35 11 58 15 23 4
44 11 48 16 3 5 18 9 33 9 43 0 91 11 91 21 0 15 -133 10 -160 -6z"/>
<path d="M550 2729 c0 -5 5 -7 10 -4 6 3 10 8 10 11 0 2 -4 4 -10 4 -5 0 -10
-5 -10 -11z"/>
<path d="M4781 2704 c0 -11 3 -14 6 -6 3 7 2 16 -1 19 -3 4 -6 -2 -5 -13z"/>
<path d="M1688 2574 c13 -9 26 -13 30 -9 8 8 -17 25 -38 25 -9 0 -6 -6 8 -16z"/>
<path d="M786 2525 c-11 -8 -28 -15 -38 -15 -10 0 -18 -4 -18 -10 0 -5 -8 -10
-18 -10 -11 0 -27 -8 -36 -19 -9 -10 -31 -21 -47 -25 -17 -3 -28 -10 -25 -15
4 -5 -2 -12 -11 -14 -17 -4 -17 -5 -1 -6 11 -1 15 -6 12 -16 -4 -9 3 -18 18
-24 13 -5 30 -16 37 -25 7 -9 23 -16 35 -16 12 0 28 -6 34 -12 8 -8 53 -14
125 -16 95 -3 122 0 182 20 58 19 71 27 73 47 3 21 1 23 -25 17 -99 -22 -229
-35 -262 -26 -20 5 -62 10 -93 10 -45 0 -63 5 -78 20 -27 27 -25 37 9 37 34 0
141 61 141 80 0 7 7 13 15 13 8 0 15 5 15 10 0 14 -22 12 -44 -5z"/>
<path d="M1780 2530 c0 -6 7 -10 15 -10 8 0 15 2 15 4 0 2 -7 6 -15 10 -8 3
-15 1 -15 -4z"/>
<path d="M1853 2503 c9 -2 25 -2 35 0 9 3 1 5 -18 5 -19 0 -27 -2 -17 -5z"/>
<path d="M1951 2463 c0 -17 -4 -33 -8 -35 -11 -4 -53 -87 -53 -103 0 -7 -4
-15 -10 -17 -21 -7 -44 -134 -44 -245 -1 -83 -4 -113 -13 -113 -7 0 -13 8 -13
18 -1 9 -6 30 -13 45 l-12 29 -28 -22 c-16 -13 -27 -31 -27 -46 0 -13 -4 -24
-9 -24 -5 0 -12 -16 -16 -36 -7 -42 -59 -146 -92 -187 l-23 -29 0 27 c0 14 -6
28 -14 31 -10 4 -15 39 -21 134 -6 114 -9 130 -29 149 l-22 20 -27 -25 c-15
-13 -27 -33 -27 -42 0 -9 -7 -26 -15 -36 -8 -11 -15 -28 -15 -38 0 -22 -23
-24 -40 -4 -6 8 -14 49 -17 92 -5 61 -11 81 -30 102 l-23 25 0 -56 c0 -31 5
-78 11 -104 16 -69 42 -167 47 -176 7 -15 52 36 52 59 0 12 7 27 15 34 8 7 15
20 15 30 0 9 3 19 6 23 10 10 34 -4 34 -20 0 -8 7 -55 16 -104 13 -70 23 -96
45 -122 28 -31 30 -57 8 -82 -5 -5 -9 -15 -9 -21 0 -7 -10 -28 -22 -46 -23
-34 -25 -35 -128 -47 -58 -6 -154 -16 -215 -21 -115 -10 -228 -25 -305 -40
-42 -8 -87 -19 -220 -53 -65 -17 -205 -64 -240 -82 -14 -6 -43 -20 -65 -30
-58 -25 -118 -57 -132 -69 -28 -24 -41 -33 -102 -65 -54 -28 -67 -32 -88 -22
-34 15 -33 16 -33 -38 l0 -50 43 -4 42 -4 -42 -1 -43 -2 0 -164 0 -165 33 11
c17 6 34 14 37 17 3 3 20 7 39 8 18 1 36 5 40 10 3 5 42 21 86 36 44 15 82 32
83 37 2 6 9 10 16 10 7 0 58 19 112 43 168 74 165 73 674 117 63 6 151 14 195
19 102 12 309 12 400 1 110 -13 269 -30 395 -41 191 -17 284 -30 294 -40 6 -5
26 -9 46 -9 19 0 44 -6 55 -14 19 -13 102 -41 195 -66 60 -16 138 -39 175 -52
17 -5 51 -16 77 -23 25 -7 72 -24 103 -39 32 -14 66 -26 76 -26 11 0 19 -5 19
-11 0 -5 4 -8 8 -5 19 11 123 -63 215 -153 53 -53 97 -99 97 -103 0 -11 187
-198 260 -259 35 -30 89 -78 119 -107 40 -37 63 -52 83 -52 15 0 28 4 28 8 0
5 -39 45 -87 89 -124 114 -143 131 -175 156 -32 24 -136 130 -188 190 -19 21
-46 52 -61 68 -15 16 -44 55 -65 86 -20 31 -97 115 -171 187 -74 72 -146 149
-161 171 -15 22 -33 44 -39 48 -7 4 -32 36 -54 70 -23 34 -59 79 -80 99 -22
20 -39 40 -39 45 -2 30 -243 164 -415 231 -170 65 -184 67 -485 66 -165 0
-290 -5 -312 -12 -33 -9 -38 -8 -40 6 -2 29 2 56 11 62 7 4 39 68 55 110 4 8
15 29 26 45 11 17 26 42 32 58 7 15 16 27 20 27 4 0 8 7 8 14 0 8 11 27 24 41
l24 26 7 -29 c3 -16 19 -42 36 -58 27 -26 30 -27 46 -12 13 14 18 50 24 195 4
98 12 191 18 206 6 16 11 43 11 61 0 19 7 50 15 69 8 20 15 53 15 74 0 28 3
34 10 23 7 -11 10 -3 9 30 0 33 -3 40 -8 25 l-8 -20 -5 20 c-4 14 -6 10 -7
-12z m49 -1011 c0 -17 -101 -19 -140 -3 -20 8 -8 10 58 10 45 1 82 -3 82 -7z
m-567 -39 c-7 -2 -21 -2 -30 0 -10 3 -4 5 12 5 17 0 24 -2 18 -5z m785 0 c-10
-2 -28 -2 -40 0 -13 2 -5 4 17 4 22 1 32 -1 23 -4z m-930 -18 c-5 -6 -78 -14
-132 -14 -30 -1 -37 -4 -32 -16 4 -11 -1 -15 -19 -15 -16 0 -25 6 -25 15 0 8
8 15 18 15 14 0 15 2 2 10 -10 7 18 10 89 10 57 0 102 -2 99 -5z m-253 -14
c-3 -5 5 -12 17 -14 13 -2 -16 -5 -63 -6 -48 0 -101 -4 -118 -7 -20 -4 -31 -3
-31 5 0 7 29 11 88 11 60 0 82 3 72 10 -12 8 -9 10 13 10 16 0 26 -4 22 -9z
m171 -20 c-3 -5 -15 -7 -26 -4 -28 7 -25 13 6 13 14 0 23 -4 20 -9z m94 -41
c0 -15 -5 -17 -27 -11 -37 10 -40 28 -3 29 23 0 30 -4 30 -18z m53 13 c-7 -2
-21 -2 -30 0 -10 3 -4 5 12 5 17 0 24 -2 18 -5z m-547 -36 c3 -21 -18 -38 -35
-28 -17 11 -6 31 17 31 15 0 15 2 2 11 -12 8 -12 10 -1 7 8 -2 15 -12 17 -21z
m232 16 c-10 -2 -26 -2 -35 0 -10 3 -2 5 17 5 19 0 27 -2 18 -5z m87 -3 c-3
-5 -12 -10 -20 -10 -8 0 -17 5 -20 10 -4 6 5 10 20 10 15 0 24 -4 20 -10z
m-426 -17 c-12 -14 -89 -18 -89 -5 0 16 12 20 56 20 35 -1 42 -4 33 -15z
m1832 -1 c-7 -2 -18 1 -23 6 -8 8 -4 9 13 5 13 -4 18 -8 10 -11z m-1314 -8
c-3 -3 -12 -4 -19 -1 -8 3 -5 6 6 6 11 1 17 -2 13 -5z m1240 0 c-3 -3 -12 -4
-19 -1 -8 3 -5 6 6 6 11 1 17 -2 13 -5z m-1760 -49 c4 -4 -2 -5 -15 -2 -16 4
-26 0 -35 -14 -8 -13 -23 -19 -46 -19 -41 0 -31 18 15 26 16 3 33 9 37 14 11
9 33 7 44 -5z m-160 -21 c-2 -2 -17 -5 -33 -8 -16 -2 -37 -7 -46 -11 -10 -4
-24 -5 -32 -2 -20 8 -27 -3 -16 -24 7 -12 7 -20 0 -24 -5 -3 -10 0 -10 7 0 9
-3 9 -10 -2 -9 -13 -14 -7 -11 13 0 4 -6 7 -14 7 -8 0 -15 5 -15 10 0 6 11 10
24 10 14 0 28 4 31 10 9 15 63 26 102 22 19 -3 32 -6 30 -8z m271 -19 c-3 -3
-9 2 -12 12 -6 14 -5 15 5 6 7 -7 10 -15 7 -18z m1940 -34 c-1 -44 -2 -44 -5
-8 -2 20 -8 37 -14 37 -5 0 -9 4 -9 8 0 5 7 9 15 9 11 0 15 -11 13 -46z
m-2063 -1 c3 -5 1 -10 -4 -10 -6 0 -11 5 -11 10 0 6 2 10 4 10 3 0 8 -4 11
-10z m2082 -27 c-3 -10 -5 -4 -5 12 0 17 2 24 5 18 2 -7 2 -21 0 -30z m20 -5
c-3 -7 -5 -2 -5 12 0 14 2 19 5 13 2 -7 2 -19 0 -25z m-2532 12 c3 -5 2 -10
-4 -10 -5 0 -13 5 -16 10 -3 6 -2 10 4 10 5 0 13 -4 16 -10z m326 -11 c-23 -9
-41 -5 -41 10 0 4 14 5 32 3 31 -5 31 -5 9 -13z m2253 -10 c-4 -6 -11 -6 -20
2 -21 17 -17 31 6 19 11 -6 18 -15 14 -21z m-2034 2 c0 -5 17 -8 37 -6 53 4
77 -8 33 -16 -28 -5 -23 -7 28 -8 38 0 62 -5 62 -12 0 -17 -127 -4 -146 15 -8
9 -22 16 -30 16 -8 0 -14 5 -14 10 0 6 7 10 15 10 8 0 15 -4 15 -9z m404 0
c10 -16 -21 -20 -41 -6 -17 13 -16 14 9 15 15 0 29 -4 32 -9z m461 -1 c3 -6
-1 -7 -9 -4 -18 7 -21 14 -7 14 6 0 13 -4 16 -10z m1060 0 c-3 -5 -12 -10 -18
-10 -7 0 -6 4 3 10 19 12 23 12 15 0z m-1718 -52 c-2 -13 -4 -5 -4 17 -1 22 1
32 4 23 2 -10 2 -28 0 -40z m20 5 c-3 -10 -5 -2 -5 17 0 19 2 27 5 18 2 -10 2
-26 0 -35z m70 0 c-3 -10 -5 -2 -5 17 0 19 2 27 5 18 2 -10 2 -26 0 -35z
m-110 -10 c-3 -10 -5 -2 -5 17 0 19 2 27 5 18 2 -10 2 -26 0 -35z m920 41 c-3
-3 -12 -4 -19 -1 -8 3 -5 6 6 6 11 1 17 -2 13 -5z m-1613 -16 c-3 -5 -12 -7
-20 -4 -8 3 -14 1 -14 -3 0 -5 -7 -11 -15 -15 -10 -4 -15 1 -15 14 0 16 7 19
35 18 19 -1 32 -5 29 -10z m783 -20 c-3 -7 -5 -2 -5 12 0 14 2 19 5 13 2 -7 2
-19 0 -25z m460 20 c-36 -6 -74 -5 -100 0 -36 9 -28 10 58 10 97 0 98 -1 42
-10z m143 2 c0 -5 -4 -10 -10 -10 -5 0 -10 5 -10 10 0 6 5 10 10 10 6 0 10 -4
10 -10z m75 0 c4 -6 -5 -10 -20 -10 -15 0 -24 4 -20 10 3 6 12 10 20 10 8 0
17 -4 20 -10z m630 0 c3 -5 -1 -10 -10 -10 -9 0 -13 5 -10 10 3 6 8 10 10 10
2 0 7 -4 10 -10z m-2178 -22 c-3 -8 -6 -5 -6 6 -1 11 2 17 5 13 3 -3 4 -12 1
-19z m2098 6 c28 -4 54 -7 58 -5 5 1 6 -2 3 -7 -5 -8 -69 -7 -111 2 -11 3 -26
5 -32 5 -7 1 -13 5 -13 10 0 5 10 8 23 6 12 -2 45 -7 72 -11z m499 7 c8 -13
-4 -42 -15 -35 -12 7 -12 44 0 44 6 0 12 -4 15 -9z m-2644 -32 c0 -5 -9 -9
-20 -9 -11 0 -20 6 -20 14 0 9 7 12 20 9 11 -3 20 -9 20 -14z m560 12 c0 -6
-17 -7 -37 -4 -52 8 -54 13 -5 13 23 0 42 -4 42 -9z m480 5 c0 -11 -19 -15
-25 -6 -3 5 1 10 9 10 9 0 16 -2 16 -4z m1690 -11 c7 -9 8 -15 2 -15 -5 0 -12
7 -16 15 -3 8 -4 15 -2 15 2 0 9 -7 16 -15z m-2664 -30 c1 -8 -2 -15 -7 -15
-5 0 -9 10 -9 22 0 23 12 17 16 -7z m2636 -5 c-4 -29 -21 -37 -29 -13 -3 9 22
43 31 43 1 0 1 -14 -2 -30z m-1892 10 c0 -5 -21 -9 -47 -8 l-48 1 45 7 c25 4
46 8 48 8 1 1 2 -2 2 -8z m17 -12 c-3 -8 -6 -5 -6 6 -1 11 2 17 5 13 3 -3 4
-12 1 -19z m1268 12 c-3 -5 -23 -10 -43 -9 -33 1 -34 2 -12 9 36 12 62 12 55
0z m172 -37 c-3 -10 -5 -2 -5 17 0 19 2 27 5 18 2 -10 2 -26 0 -35z m20 0 c-3
-10 -5 -2 -5 17 0 19 2 27 5 18 2 -10 2 -26 0 -35z m490 13 c20 -22 44 -79 28
-64 -5 4 -15 2 -23 -4 -13 -11 -14 -8 -8 19 6 26 4 34 -13 43 -12 6 -21 15
-21 20 0 17 16 11 37 -14z m-2312 4 c4 -6 -7 -10 -27 -10 -25 0 -29 3 -18 10
19 13 37 13 45 0z m-549 -15 c-19 -15 -19 -15 3 -15 12 0 20 -4 17 -8 -5 -8
-34 -8 -71 -2 -5 1 -1 5 10 10 18 8 18 9 -5 10 l-25 2 25 8 c14 4 34 8 45 9
20 0 20 0 1 -14z m2424 -3 c0 -11 -3 -12 -13 -3 -8 6 -17 8 -20 4 -4 -3 -7 -1
-7 5 0 6 9 10 20 9 11 -1 20 -8 20 -15z m17 -14 c-3 -8 -6 -5 -6 6 -1 11 2 17
5 13 3 -3 4 -12 1 -19z m117 -30 c33 -23 35 -28 17 -28 -26 0 -91 40 -91 57 0
16 25 6 74 -29z m185 0 c-25 -10 -50 7 -42 28 4 12 10 11 34 -3 28 -17 29 -18
8 -25z m75 -30 c-15 -16 -16 -23 -6 -38 17 -27 15 -30 -13 -30 -14 0 -25 6
-25 13 0 15 -44 42 -68 42 -8 0 -17 6 -19 13 -6 16 17 15 54 -3 35 -17 60 -12
68 16 4 11 11 17 16 13 6 -4 3 -14 -7 -26z m-2451 15 c-7 -2 -21 -2 -30 0 -10
3 -4 5 12 5 17 0 24 -2 18 -5z m2544 -25 c-3 -7 -5 -2 -5 12 0 14 2 19 5 13 2
-7 2 -19 0 -25z m24 -41 c-8 -8 -11 -3 -11 19 1 25 2 27 11 11 8 -14 8 -22 0
-30z m-2691 13 c0 -5 -4 -10 -10 -10 -5 0 -10 5 -10 10 0 6 5 10 10 10 6 0 10
-4 10 -10z m2650 -5 c0 -6 -9 -11 -20 -12 -11 -1 -20 4 -20 10 0 7 9 13 20 13
11 0 20 -5 20 -11z m-53 -17 c-3 -8 -6 -5 -6 6 -1 11 2 17 5 13 3 -3 4 -12 1
-19z m70 -30 c-3 -7 -5 -2 -5 12 0 14 2 19 5 13 2 -7 2 -19 0 -25z m65 19 c-7
-8 -7 -18 -2 -27 7 -10 10 -11 10 -2 0 6 7 12 16 12 14 0 14 -3 4 -16 -8 -8
-9 -14 -4 -13 13 3 44 -12 44 -21 0 -4 -7 -10 -15 -14 -8 -3 -14 0 -12 6 1 6
-15 16 -35 21 -39 9 -50 31 -26 55 16 16 33 15 20 -1z m-2837 -17 c-3 -5 -22
-10 -41 -10 -21 0 -33 4 -29 10 3 6 22 10 41 10 21 0 33 -4 29 -10z m2752 -22
c-3 -7 -5 -2 -5 12 0 14 2 19 5 13 2 -7 2 -19 0 -25z m40 0 c-3 -8 -6 -5 -6 6
-1 11 2 17 5 13 3 -3 4 -12 1 -19z"/>
<path d="M1145 2332 c-16 -41 -35 -158 -35 -213 0 -40 7 -74 22 -106 22 -46
22 -46 31 -20 5 15 13 27 18 27 5 0 9 12 9 27 0 25 0 26 -20 8 -19 -17 -20
-17 -20 1 0 10 5 46 10 79 25 143 27 192 9 203 -13 9 -19 7 -24 -6z"/>
<path d="M1248 2166 c-10 -7 -18 -18 -18 -24 0 -6 -7 -15 -16 -20 -10 -6 -14
-20 -12 -43 l3 -34 29 45 c16 25 35 49 42 53 17 10 18 37 2 37 -7 0 -21 -7
-30 -14z"/>
<path d="M0 235 l0 -235 28 0 29 0 7 135 c7 152 -4 252 -35 302 -12 18 -23 33
-25 33 -2 0 -4 -106 -4 -235z"/>
</g>
</svg>
